<?xml version="1.0" encoding="UTF-8" ?>
<!DOCTYPE svg PUBLIC "-//W3C//DTD SVG 1.1//EN" "http://www.w3.org/Graphics/SVG/1.1/DTD/svg11.dtd">
<svg width="256pt" height="256pt" viewBox="0 0 256 256" version="1.1" xmlns="http://www.w3.org/2000/svg">
<g id="#8cc152ff">
<path fill="#8cc152" opacity="1.00" d=" M 206.37 0.00 L 206.64 0.00 C 216.30 -0.03 225.96 3.35 233.12 9.91 C 248.47 24.49 255.46 45.92 256.00 66.70 L 256.00 72.19 C 254.96 95.06 248.16 117.42 237.80 137.74 C 224.10 164.53 204.82 188.36 182.00 207.93 C 177.79 211.07 174.14 215.04 169.47 217.53 C 163.49 220.50 155.65 215.61 155.64 208.95 C 155.24 204.57 158.45 201.14 161.68 198.69 C 181.92 182.98 199.19 163.53 212.76 141.82 C 224.94 121.55 234.29 98.90 235.63 75.07 C 236.87 60.27 234.14 44.66 225.82 32.16 C 222.97 28.14 219.91 23.87 215.30 21.75 C 208.72 18.53 200.22 19.95 195.08 25.18 C 186.38 34.64 176.58 44.72 174.35 57.89 C 173.37 64.36 176.46 70.62 180.74 75.26 C 187.27 82.38 194.43 88.89 200.99 95.99 C 204.00 99.23 204.04 104.25 201.96 108.00 C 189.07 133.03 170.39 154.67 149.45 173.32 C 136.58 184.56 122.57 194.61 107.28 202.29 C 103.45 204.26 98.52 203.63 95.47 200.55 C 88.62 194.06 82.17 187.14 75.24 180.74 C 70.62 176.45 64.37 173.38 57.92 174.34 C 48.97 175.56 41.47 181.17 34.57 186.61 C 31.37 189.39 28.15 192.16 25.14 195.13 C 19.94 200.27 18.54 208.74 21.75 215.30 C 23.53 219.26 27.01 222.04 30.41 224.57 C 42.27 233.28 57.44 236.47 71.95 235.85 C 84.22 235.46 96.26 232.57 107.83 228.61 C 112.23 227.07 116.43 224.97 120.97 223.88 C 125.82 222.62 131.14 225.93 132.47 230.70 C 133.91 235.17 131.55 240.36 127.34 242.37 C 109.43 250.26 90.16 255.43 70.53 256.00 L 66.85 256.00 C 47.62 255.52 27.96 249.64 13.48 236.58 C 4.76 229.27 -0.11 217.97 0.00 206.64 L 0.00 206.39 C 0.55 195.73 5.48 185.53 13.53 178.53 C 21.26 171.40 29.43 164.59 38.82 159.78 C 49.32 154.24 62.11 152.10 73.42 156.45 C 86.21 161.07 94.77 172.17 104.30 181.25 C 114.78 175.45 124.36 168.19 133.59 160.60 C 152.18 144.39 169.03 125.81 181.24 104.28 C 173.21 95.86 163.76 88.36 158.38 77.82 C 153.24 68.04 152.83 56.09 156.78 45.83 C 161.47 32.76 170.64 21.97 180.01 11.97 C 186.86 4.76 196.47 0.56 206.37 0.00 Z" />
<path fill="#8cc152" opacity="1.00" d=" M 110.07 11.18 C 115.53 11.13 121.36 9.49 126.56 11.76 C 131.92 14.38 133.59 22.08 129.75 26.66 C 127.32 30.03 122.93 30.61 119.07 30.66 C 97.50 31.09 76.16 39.57 60.30 54.22 C 42.39 70.34 31.38 93.87 30.71 117.98 C 30.54 121.69 30.58 125.91 27.77 128.74 C 23.91 133.09 16.26 132.83 12.80 128.12 C 9.96 124.77 10.61 120.09 10.79 116.04 C 11.94 87.14 25.19 58.99 46.67 39.64 C 63.95 23.57 86.61 13.53 110.07 11.18 Z" />
<path fill="#8cc152" opacity="1.00" d=" M 96.50 56.58 C 101.27 55.02 107.09 57.25 108.95 62.06 C 111.44 67.30 108.17 74.04 102.60 75.50 C 90.56 78.73 80.20 88.13 76.41 100.08 C 75.39 104.37 72.70 108.86 67.98 109.62 C 61.33 111.29 54.59 104.51 56.31 97.86 C 60.91 78.23 77.10 61.85 96.50 56.58 Z" />
</g>
</svg>
