<?xml version="1.0" encoding="UTF-8" ?>
<!DOCTYPE svg PUBLIC "-//W3C//DTD SVG 1.1//EN" "http://www.w3.org/Graphics/SVG/1.1/DTD/svg11.dtd">
<svg width="256pt" height="256pt" viewBox="0 0 256 256" version="1.1" xmlns="http://www.w3.org/2000/svg">
<g id="#8cc152ff">
<path fill="#8cc152" opacity="1.00" d=" M 39.50 0.00 L 216.90 0.00 C 228.44 0.51 239.79 5.82 246.99 14.95 C 252.70 21.81 255.59 30.63 256.00 39.48 L 256.00 165.52 C 255.75 170.01 252.59 174.36 248.02 175.16 C 242.38 176.57 236.35 171.92 236.15 166.15 C 235.78 156.78 236.11 147.38 236.00 138.00 C 224.63 138.00 213.26 138.00 201.90 138.00 C 197.65 151.37 184.97 161.59 170.89 162.34 C 161.15 162.98 152.07 158.13 144.33 152.72 C 150.58 169.43 161.29 184.67 175.98 195.00 C 180.12 197.57 183.24 202.57 181.41 207.52 C 179.82 213.49 172.10 216.40 166.93 213.01 C 155.52 205.40 145.75 195.45 138.01 184.14 C 137.99 201.43 138.01 218.71 138.00 236.00 C 164.02 235.97 190.04 236.06 216.05 235.95 C 225.01 236.06 233.52 229.38 235.38 220.59 C 236.21 217.06 235.75 213.02 238.14 210.02 C 241.06 205.98 247.21 204.89 251.35 207.70 C 254.14 209.38 255.61 212.55 256.00 215.70 L 256.00 216.54 C 255.60 228.20 250.28 239.71 241.06 246.99 C 234.36 252.56 225.79 255.43 217.17 256.00 L 39.56 256.00 C 28.05 255.63 16.67 250.48 9.36 241.48 C 3.58 234.72 0.57 225.97 0.00 217.16 L 0.00 39.55 C 0.39 30.69 3.28 21.86 8.98 14.98 C 16.27 5.73 27.81 0.38 39.50 0.00 M 20.04 39.98 C 19.95 65.98 20.03 91.99 20.00 118.00 C 30.61 118.00 41.21 118.00 51.82 118.00 C 56.05 102.95 71.10 91.56 86.86 92.69 C 98.73 93.82 108.58 101.31 118.00 107.98 C 118.00 78.65 118.00 49.33 118.00 20.00 C 91.98 20.03 65.96 19.95 39.94 20.04 C 29.30 19.83 19.81 29.34 20.04 39.98 M 138.00 20.00 C 138.00 48.83 138.00 77.66 138.00 106.49 C 144.78 101.78 151.63 96.92 159.53 94.29 C 169.31 90.72 180.59 93.14 188.88 99.17 C 195.29 103.71 199.87 110.53 202.18 118.00 C 213.46 118.00 224.73 118.00 236.00 118.00 C 236.00 94.32 236.00 70.63 236.00 46.95 C 235.98 43.59 236.15 40.21 235.69 36.87 C 234.65 29.55 229.07 23.15 222.02 20.98 C 218.47 19.83 214.69 20.01 211.01 19.99 C 186.67 20.01 162.34 19.99 138.00 20.00 M 70.61 128.88 C 71.09 137.65 81.19 145.27 89.55 141.32 C 97.15 137.86 103.83 132.68 110.33 127.50 C 103.08 121.86 95.75 115.78 86.95 112.77 C 78.02 111.23 69.45 119.99 70.61 128.88 M 164.47 113.67 C 156.85 117.13 150.20 122.32 143.67 127.48 C 148.83 131.73 154.25 135.70 160.02 139.09 C 163.36 140.80 166.95 143.16 170.87 142.26 C 178.79 141.19 184.78 132.95 183.25 125.08 C 182.17 116.77 172.46 109.89 164.47 113.67 M 20.00 138.00 C 20.03 164.03 19.94 190.07 20.04 216.10 C 19.85 226.73 29.36 236.19 39.99 235.96 C 65.99 236.05 92.00 235.97 118.00 236.00 C 118.00 218.70 117.99 201.40 118.01 184.11 C 110.12 195.62 100.17 205.82 88.42 213.38 C 82.36 216.78 74.20 211.90 74.13 205.04 C 73.65 200.46 77.09 196.94 80.56 194.56 C 95.35 183.99 106.07 168.42 112.02 151.35 C 104.67 156.22 96.85 161.14 87.93 162.24 C 72.22 163.86 56.75 152.94 52.12 138.00 C 41.41 138.00 30.71 138.00 20.00 138.00 Z" />
</g>
</svg>
