<?xml version="1.0" encoding="UTF-8" ?>
<!DOCTYPE svg PUBLIC "-//W3C//DTD SVG 1.1//EN" "http://www.w3.org/Graphics/SVG/1.1/DTD/svg11.dtd">
<svg width="256pt" height="256pt" viewBox="0 0 256 256" version="1.1" xmlns="http://www.w3.org/2000/svg">
<g id="#8cc152ff">
<path fill="#8cc152" opacity="1.00" d=" M 38.37 33.30 C 44.15 28.67 51.57 26.39 58.94 26.44 C 106.30 26.40 153.66 26.43 201.01 26.43 C 216.55 25.81 230.99 39.30 230.87 54.94 C 230.99 63.98 231.01 73.02 230.86 82.05 C 230.74 93.74 223.48 104.89 212.97 109.94 C 205.47 113.81 196.78 113.35 188.59 113.20 C 188.46 128.15 188.59 143.09 188.54 158.03 C 189.39 164.92 180.22 169.77 175.23 164.76 C 173.28 163.11 172.47 160.50 172.53 158.01 C 172.53 123.69 172.51 89.36 172.54 55.04 C 172.42 50.62 174.04 46.43 175.77 42.44 C 136.55 42.45 97.34 42.42 58.12 42.46 C 49.33 42.18 41.54 50.22 42.08 59.00 C 42.07 105.69 42.05 152.38 42.09 199.07 C 41.65 207.79 49.45 215.45 58.07 215.37 C 90.70 215.42 123.34 215.39 155.97 215.39 C 163.07 215.57 169.94 210.64 171.86 203.79 C 172.78 200.28 172.10 195.87 175.36 193.39 C 179.66 189.23 187.58 192.20 188.37 198.05 C 189.52 214.12 176.24 229.79 160.09 230.92 C 125.04 230.98 90.00 230.94 54.95 230.94 C 38.94 230.15 25.67 215.00 26.10 199.10 C 26.02 152.38 26.04 105.64 26.09 58.91 C 25.97 49.08 30.52 39.29 38.37 33.30 M 188.58 55.07 C 188.46 69.13 188.61 83.19 188.51 97.25 C 193.04 97.12 197.63 97.65 202.13 96.88 C 209.10 95.63 214.74 89.15 214.86 82.04 C 214.99 73.00 214.98 63.96 214.87 54.93 C 214.76 48.21 208.69 42.39 201.99 42.47 C 195.10 42.16 188.68 48.17 188.58 55.07 Z" />
<path fill="#8cc152" opacity="1.00" d=" M 87.78 66.90 C 89.57 64.06 92.45 61.38 96.05 61.68 C 101.65 61.84 105.74 68.77 102.49 73.57 C 98.09 80.40 93.19 86.90 88.56 93.58 C 85.59 98.02 79.65 100.51 74.50 98.67 C 70.21 97.36 67.55 93.52 64.42 90.59 C 62.06 88.05 58.79 85.76 58.24 82.10 C 57.36 77.62 61.29 72.68 65.97 73.08 C 71.32 72.85 74.08 78.32 77.78 81.25 C 81.01 76.39 84.47 71.70 87.78 66.90 Z" />
<path fill="#8cc152" opacity="1.00" d=" M 120.46 76.51 C 129.64 76.43 138.83 76.43 148.02 76.51 C 152.03 76.46 155.99 79.85 155.89 83.99 C 156.50 88.48 152.39 92.52 147.98 92.41 C 139.01 92.51 130.02 92.45 121.05 92.44 C 116.79 92.72 112.76 89.21 112.53 84.95 C 112.19 80.56 116.08 76.51 120.46 76.51 Z" />
<path fill="#8cc152" opacity="1.00" d=" M 89.36 113.34 C 91.66 110.22 96.29 109.19 99.61 111.29 C 103.37 113.28 104.85 118.54 102.45 122.11 C 98.11 128.81 93.29 135.19 88.78 141.77 C 85.89 146.29 80.05 148.85 74.81 147.27 C 70.06 145.84 67.10 141.59 63.64 138.35 C 61.12 135.76 57.85 133.00 58.14 129.01 C 58.17 123.89 64.01 119.83 68.79 121.88 C 72.43 123.61 74.79 127.07 77.73 129.71 C 81.59 124.24 85.28 118.65 89.36 113.34 Z" />
<path fill="#8cc152" opacity="1.00" d=" M 118.24 125.34 C 125.75 124.20 133.44 125.12 141.02 124.82 C 145.45 124.97 151.06 123.89 154.15 127.92 C 158.23 132.19 155.09 140.44 149.12 140.70 C 139.72 141.00 130.29 140.78 120.88 140.81 C 117.24 141.06 113.77 138.53 112.82 135.03 C 111.55 131.02 114.24 126.43 118.24 125.34 Z" />
<path fill="#8cc152" opacity="1.00" d=" M 88.04 163.05 C 89.68 160.71 91.94 158.35 94.99 158.24 C 99.37 157.77 103.66 161.61 103.61 166.02 C 103.73 168.58 102.13 170.76 100.78 172.79 C 96.59 178.64 92.50 184.56 88.32 190.41 C 85.36 194.61 79.69 196.84 74.72 195.25 C 69.98 193.83 67.05 189.58 63.60 186.36 C 61.10 183.81 57.89 181.07 58.14 177.13 C 58.11 171.93 64.05 167.82 68.86 169.95 C 72.47 171.71 74.81 175.15 77.77 177.74 C 81.11 172.78 84.61 167.94 88.04 163.05 Z" />
<path fill="#8cc152" opacity="1.00" d=" M 117.51 173.61 C 124.86 172.04 132.49 173.22 139.96 172.85 C 144.67 173.13 150.69 171.70 154.10 175.88 C 158.26 180.15 155.09 188.55 149.05 188.74 C 139.40 188.99 129.74 188.91 120.09 188.80 C 115.64 188.88 111.98 184.38 112.57 180.05 C 112.92 177.22 114.86 174.68 117.51 173.61 Z" />
</g>
</svg>
