<?xml version="1.0" encoding="UTF-8" ?>
<!DOCTYPE svg PUBLIC "-//W3C//DTD SVG 1.1//EN" "http://www.w3.org/Graphics/SVG/1.1/DTD/svg11.dtd">
<svg width="256pt" height="256pt" viewBox="0 0 256 256" version="1.1" xmlns="http://www.w3.org/2000/svg">
<g id="#8cc152ff">
<path fill="#8cc152" opacity="1.00" d=" M 35.69 0.00 L 158.09 0.00 C 160.95 1.27 163.56 3.47 164.41 6.59 C 166.13 11.57 162.99 17.52 157.94 18.95 C 154.03 19.93 149.96 19.43 145.97 19.53 C 110.68 19.57 75.38 19.44 40.09 19.59 C 29.38 19.53 20.10 29.29 20.52 39.96 C 20.47 97.97 20.52 155.98 20.50 213.99 C 20.32 219.71 22.22 225.58 26.41 229.59 C 30.40 233.76 36.25 235.67 41.94 235.50 C 97.63 235.50 153.31 235.50 209.00 235.50 C 214.48 235.46 220.33 236.00 225.36 233.36 C 232.21 230.05 236.62 222.60 236.45 215.01 C 236.49 187.30 236.47 159.59 236.45 131.88 C 236.20 127.58 237.72 122.79 241.84 120.79 C 247.07 117.81 253.95 120.82 256.00 126.31 L 256.00 220.24 C 254.55 235.17 243.54 248.52 229.35 253.22 C 222.54 255.69 215.17 255.53 208.03 255.50 C 153.00 255.50 97.97 255.50 42.94 255.50 C 38.04 255.39 33.06 255.08 28.39 253.48 C 16.51 249.78 6.69 240.14 2.76 228.33 C 0.30 221.51 0.47 214.15 0.50 207.01 C 0.50 152.01 0.50 97.00 0.50 42.00 C 0.49 34.84 1.67 27.56 5.10 21.21 C 10.98 9.71 22.79 1.31 35.69 0.00 Z" />
<path fill="#8cc152" opacity="1.00" d=" M 197.18 0.00 L 203.65 0.00 C 205.84 1.11 207.83 2.61 209.55 4.38 C 222.05 16.92 234.70 29.32 247.20 41.87 C 251.63 46.30 254.73 51.98 256.00 58.12 L 256.00 69.03 C 254.65 75.11 251.60 80.74 247.19 85.14 C 234.71 97.66 222.09 110.06 209.59 122.57 C 207.46 124.68 205.05 126.86 201.96 127.26 C 196.76 128.21 191.41 124.17 190.72 118.97 C 190.00 115.36 191.88 111.89 194.40 109.45 C 206.95 96.97 219.51 84.49 232.07 72.03 C 234.01 70.06 235.94 67.79 236.24 64.93 C 236.89 61.36 235.09 57.91 232.58 55.49 C 219.86 42.83 207.11 30.21 194.40 17.54 C 191.90 15.10 190.01 11.65 190.71 8.06 C 191.16 4.37 193.95 1.55 197.18 0.00 Z" />
<path fill="#8cc152" opacity="1.00" d=" M 187.55 53.82 C 192.83 53.49 198.17 52.88 203.45 53.28 C 210.32 53.93 214.20 62.66 210.33 68.28 C 207.88 72.65 202.46 73.20 197.96 73.25 C 163.94 74.03 130.93 91.40 110.53 118.56 C 95.75 137.74 87.48 161.76 87.10 185.97 C 86.59 191.73 88.51 199.06 83.21 203.16 C 77.80 208.04 68.07 204.34 67.28 197.10 C 65.74 171.00 71.47 144.32 84.53 121.58 C 96.54 100.39 114.40 82.54 135.60 70.53 C 151.50 61.40 169.36 55.91 187.55 53.82 Z" />
</g>
</svg>
