<?xml version="1.0" encoding="UTF-8" ?>
<!DOCTYPE svg PUBLIC "-//W3C//DTD SVG 1.1//EN" "http://www.w3.org/Graphics/SVG/1.1/DTD/svg11.dtd">
<svg width="256pt" height="256pt" viewBox="0 0 256 256" version="1.1" xmlns="http://www.w3.org/2000/svg">
<g id="#8cc152ff">
<path fill="#8cc152" opacity="1.00" d=" M 125.80 0.00 L 129.24 0.00 C 153.03 0.41 176.42 10.95 192.34 28.65 C 205.89 43.41 214.04 62.98 214.99 82.99 C 216.15 102.02 210.09 120.95 200.08 136.99 C 182.93 163.91 157.49 184.31 140.12 211.07 C 138.23 213.98 135.70 216.97 132.01 217.35 C 126.77 217.99 120.14 218.08 116.98 213.00 C 111.64 205.10 106.08 197.34 99.77 190.18 C 90.08 179.25 80.42 168.29 70.74 157.34 C 60.15 144.85 50.61 131.09 45.28 115.47 C 41.92 105.04 39.95 94.04 40.73 83.05 C 41.70 60.11 52.40 37.85 69.50 22.57 C 84.76 8.60 105.15 0.61 125.80 0.00 M 88.64 32.69 C 77.61 40.57 69.08 51.85 64.51 64.61 C 59.54 78.13 59.42 93.20 63.46 106.98 C 68.67 123.70 79.70 137.76 91.32 150.53 C 103.66 164.70 116.83 178.20 127.85 193.46 C 135.04 183.59 143.04 174.34 151.25 165.31 C 163.21 151.45 176.61 138.52 185.54 122.38 C 192.42 110.51 195.81 96.66 195.02 82.95 C 194.10 67.94 187.87 53.35 177.75 42.23 C 167.69 31.06 153.83 23.35 138.97 20.95 C 121.53 17.96 102.93 22.21 88.64 32.69 Z" />
<path fill="#8cc152" opacity="1.00" d=" M 119.53 40.80 C 132.80 38.50 147.06 41.83 157.54 50.38 C 166.84 57.56 173.19 68.38 175.11 79.96 C 175.50 84.50 176.95 89.77 173.81 93.72 C 170.41 98.63 162.52 99.01 158.65 94.48 C 155.35 91.11 156.16 86.07 155.21 81.83 C 152.79 70.06 142.00 60.70 129.99 60.04 C 120.56 59.27 110.93 63.77 105.46 71.48 C 100.22 78.57 98.73 88.23 101.55 96.58 C 104.57 105.93 112.86 113.29 122.51 115.16 C 127.19 115.90 133.04 115.45 135.98 119.97 C 140.24 125.38 136.77 134.40 129.91 135.40 C 106.36 137.20 83.78 118.26 80.79 94.94 C 79.29 85.25 80.89 75.07 85.39 66.35 C 91.92 53.09 105.00 43.40 119.53 40.80 Z" />
<path fill="#8cc152" opacity="1.00" d=" M 32.98 172.07 C 40.09 168.38 48.45 168.92 56.19 169.44 C 63.44 170.22 67.15 179.89 62.31 185.34 C 58.18 190.68 50.78 188.66 44.99 189.22 C 42.17 189.24 39.96 191.26 38.84 193.71 C 33.06 205.32 27.41 216.99 21.62 228.60 C 20.99 230.25 19.68 232.17 20.65 233.94 C 21.50 236.03 24.05 235.96 25.93 236.04 C 92.62 236.03 159.31 236.01 226.00 236.05 C 228.78 235.90 231.80 236.50 234.39 235.22 C 236.60 233.49 235.42 230.64 234.39 228.62 C 228.73 217.22 223.13 205.79 217.51 194.37 C 216.43 192.25 214.98 189.88 212.42 189.46 C 207.12 188.37 201.34 190.25 196.28 187.89 C 191.19 185.41 189.38 178.26 192.67 173.66 C 194.63 170.55 198.38 169.16 201.93 169.18 C 208.28 169.16 214.93 168.61 220.94 171.11 C 227.00 173.51 231.91 178.37 234.74 184.21 C 240.28 195.36 245.72 206.55 251.26 217.70 C 252.63 220.46 253.95 223.27 254.81 226.24 C 256.99 233.91 254.76 242.56 249.33 248.36 C 245.01 253.14 238.67 255.69 232.30 256.00 L 23.78 256.00 C 13.30 255.86 3.45 248.29 1.07 238.02 C -0.62 231.85 0.86 225.33 3.74 219.76 C 9.59 207.93 15.38 196.07 21.24 184.24 C 23.76 179.09 27.83 174.66 32.98 172.07 Z" />
</g>
</svg>
