<?xml version="1.0" encoding="UTF-8" ?>
<!DOCTYPE svg PUBLIC "-//W3C//DTD SVG 1.1//EN" "http://www.w3.org/Graphics/SVG/1.1/DTD/svg11.dtd">
<svg width="256pt" height="256pt" viewBox="0 0 256 256" version="1.1" xmlns="http://www.w3.org/2000/svg">
<g id="#8cc152ff">
<path fill="#8cc152" opacity="1.00" d=" M 127.33 0.00 L 129.67 0.00 C 147.93 -0.04 166.30 5.79 180.58 17.30 C 200.59 32.92 213.29 55.73 223.24 78.64 C 230.41 95.18 237.15 111.94 242.54 129.14 C 244.13 133.77 241.26 138.10 238.53 141.57 C 234.88 146.50 230.52 150.84 225.88 154.81 C 229.70 157.73 233.81 160.38 237.05 163.97 C 241.02 168.76 238.93 176.81 233.19 179.14 C 229.68 180.77 225.37 180.01 222.50 177.47 C 214.18 170.36 204.68 164.72 194.64 160.43 C 191.72 159.29 188.95 157.33 187.87 154.27 C 185.68 149.15 188.76 142.68 194.09 141.13 C 198.55 139.55 202.83 142.26 206.79 143.96 C 212.53 140.29 217.64 135.69 221.98 130.44 C 216.17 113.14 209.20 96.27 201.81 79.60 C 200.34 98.00 191.86 115.74 178.23 128.23 C 169.31 136.63 158.19 142.43 146.44 145.76 C 143.80 148.29 141.85 151.71 138.39 153.34 C 131.59 157.34 122.44 156.72 116.26 151.80 C 110.01 147.08 107.08 138.49 109.16 130.93 C 111.30 122.15 120.00 115.59 129.04 116.03 C 135.64 116.07 141.66 119.85 145.42 125.13 C 158.39 120.63 169.56 111.13 175.86 98.91 C 181.91 87.43 183.55 73.72 180.43 61.13 C 177.88 50.58 171.91 40.99 163.91 33.70 C 154.30 51.29 137.60 64.13 119.15 71.40 C 110.43 74.86 101.32 77.33 92.06 78.82 C 86.59 79.92 80.95 75.49 80.57 69.96 C 79.94 64.87 83.86 59.87 88.92 59.15 C 104.36 56.39 119.79 51.12 132.07 41.08 C 138.09 36.21 143.09 30.15 146.77 23.35 C 131.21 17.78 113.43 19.38 98.72 26.71 C 79.40 36.65 66.99 55.65 57.62 74.58 C 49.06 92.76 41.48 111.42 35.03 130.45 C 39.27 135.57 44.22 140.09 49.80 143.70 C 58.56 139.74 67.64 136.43 76.99 134.18 C 82.58 132.73 88.59 137.26 88.95 142.97 C 89.57 148.00 85.77 152.74 80.91 153.77 C 63.97 158.33 47.41 165.60 34.01 177.12 C 25.34 184.46 20.11 195.62 20.03 206.98 C 20.03 213.67 19.85 220.37 20.12 227.06 C 20.47 232.40 25.71 236.44 30.94 236.00 C 95.66 236.00 160.38 236.00 225.10 236.00 C 229.83 236.34 234.59 233.15 235.65 228.46 C 236.66 222.81 235.24 216.98 236.52 211.38 C 238.19 205.76 245.26 202.79 250.44 205.56 C 253.75 207.14 255.80 210.63 256.00 214.25 L 256.00 226.67 C 255.94 242.20 242.23 255.93 226.69 256.00 L 28.54 256.00 C 13.32 255.46 0.07 241.97 0.00 226.71 L 0.00 204.72 C 0.69 192.66 4.86 180.76 12.25 171.16 C 17.24 164.45 23.93 159.28 30.70 154.47 C 25.85 150.27 21.33 145.65 17.61 140.41 C 15.82 137.92 13.90 135.15 14.03 131.94 C 14.15 129.43 15.05 127.06 15.83 124.70 C 22.23 105.76 29.70 87.18 38.11 69.04 C 47.81 48.55 60.56 28.67 79.17 15.19 C 93.04 5.07 110.22 -0.03 127.33 0.00 Z" />
</g>
</svg>
