<?xml version="1.0" encoding="UTF-8" ?>
<!DOCTYPE svg PUBLIC "-//W3C//DTD SVG 1.1//EN" "http://www.w3.org/Graphics/SVG/1.1/DTD/svg11.dtd">
<svg width="256pt" height="256pt" viewBox="0 0 256 256" version="1.1" xmlns="http://www.w3.org/2000/svg">
<g id="#8cc152ff">
<path fill="#8cc152" opacity="1.00" d=" M 124.25 0.00 L 131.11 0.00 C 145.40 0.73 159.50 5.46 171.11 13.88 C 184.33 23.38 194.33 37.31 198.93 52.94 C 203.90 69.52 202.77 87.85 195.76 103.68 C 188.99 119.16 176.75 132.14 161.72 139.84 C 151.04 145.38 139.00 148.08 126.99 148.03 C 96.72 148.20 65.41 154.64 40.26 172.23 C 32.10 177.79 24.95 185.40 22.02 195.02 C 19.13 203.35 20.22 212.28 19.99 220.92 C 20.07 224.44 19.50 228.34 21.62 231.41 C 23.57 234.53 27.28 236.19 30.90 236.00 C 95.97 235.97 161.04 236.06 226.11 235.96 C 231.80 236.08 236.50 230.66 236.00 225.07 C 235.68 213.35 237.57 200.86 231.96 190.02 C 224.98 175.85 210.23 168.05 196.62 161.42 C 191.76 159.18 189.59 152.74 192.14 148.02 C 194.38 143.23 200.68 141.13 205.38 143.51 C 216.89 148.63 227.82 155.28 237.12 163.82 C 248.46 174.34 255.20 189.40 256.00 204.80 L 256.00 226.59 C 255.98 242.18 242.20 255.98 226.60 256.00 L 28.75 256.00 C 13.43 255.59 0.04 242.01 0.00 226.66 L 0.00 204.88 C 0.64 193.01 4.65 181.29 11.80 171.76 C 16.85 164.83 23.62 159.41 30.62 154.56 C 46.32 143.78 64.36 136.75 82.90 132.66 C 74.15 125.76 66.79 117.06 61.83 107.06 C 53.79 91.18 51.89 72.34 56.44 55.15 C 60.63 39.11 70.45 24.64 83.74 14.75 C 95.39 5.93 109.70 0.91 124.25 0.00 M 119.47 20.71 C 104.04 23.11 89.94 32.63 81.88 45.99 C 74.23 58.41 72.06 73.99 75.89 88.05 C 79.78 102.72 90.23 115.47 103.82 122.21 C 115.28 128.07 128.88 129.48 141.33 126.29 C 154.85 122.90 166.84 113.98 174.06 102.06 C 180.62 91.44 183.23 78.47 181.38 66.13 C 179.36 51.87 171.25 38.63 159.56 30.24 C 148.17 21.89 133.39 18.45 119.47 20.71 Z" />
</g>
</svg>
