<?xml version="1.0" encoding="UTF-8" ?>
<!DOCTYPE svg PUBLIC "-//W3C//DTD SVG 1.1//EN" "http://www.w3.org/Graphics/SVG/1.1/DTD/svg11.dtd">
<svg width="256pt" height="256pt" viewBox="0 0 256 256" version="1.1" xmlns="http://www.w3.org/2000/svg">
<g id="#8cc152ff">
<path fill="#8cc152" opacity="1.00" d=" M 140.22 2.17 C 143.11 0.41 146.73 -0.59 150.00 0.75 C 153.13 1.80 155.07 4.65 156.66 7.37 C 159.91 12.94 163.22 18.48 166.47 24.05 C 174.23 19.31 181.94 14.48 189.66 9.68 C 192.18 8.14 195.05 6.70 198.10 7.21 C 201.85 7.54 204.68 10.41 206.48 13.52 C 217.05 30.94 227.71 48.31 238.28 65.74 C 239.59 68.05 241.86 69.51 243.73 71.31 C 251.17 78.33 255.48 88.32 256.00 98.49 L 256.00 178.58 C 255.77 183.84 251.32 188.53 245.93 188.42 C 231.62 188.60 217.30 188.49 202.98 188.46 C 192.84 188.53 182.78 183.32 177.36 174.69 C 170.20 163.91 171.28 148.57 179.91 138.92 C 185.80 131.97 194.94 128.31 203.98 128.51 C 214.64 128.49 225.31 128.49 235.97 128.52 C 235.99 118.99 236.06 109.46 235.95 99.93 C 236.02 92.05 230.91 84.51 223.62 81.56 C 219.00 79.58 213.86 80.05 208.96 80.00 C 149.97 80.01 90.97 79.99 31.97 80.00 C 27.92 80.06 23.88 79.50 20.00 78.31 C 20.00 122.22 20.01 166.12 19.99 210.02 C 20.02 214.04 19.75 218.17 20.99 222.05 C 23.17 229.09 29.58 234.67 36.91 235.69 C 40.59 236.17 44.30 235.98 48.00 236.00 C 103.68 236.00 159.35 236.00 215.02 236.00 C 223.57 236.36 231.82 230.69 234.86 222.75 C 236.33 218.59 240.36 215.28 244.92 215.64 C 250.96 215.71 255.81 222.19 253.99 228.01 C 249.38 244.20 233.34 255.79 216.63 256.00 L 39.47 256.00 C 27.80 255.60 16.28 250.28 9.00 241.05 C 3.45 234.37 0.59 225.84 0.00 217.24 L 0.00 47.26 C 1.54 37.11 7.88 27.61 17.39 23.36 C 25.68 19.29 35.14 20.80 44.03 20.48 C 48.43 20.32 53.68 20.57 56.42 24.59 C 60.68 29.80 57.59 38.69 50.98 40.04 C 43.63 41.20 36.12 39.94 28.74 40.72 C 23.40 41.19 19.11 46.79 20.34 52.06 C 21.15 56.54 25.44 59.92 29.96 59.91 C 34.97 60.04 40.00 60.16 45.00 59.86 C 47.20 58.92 49.14 57.48 51.20 56.28 C 80.87 38.24 110.55 20.20 140.22 2.17 M 83.61 59.94 C 110.57 60.08 137.53 59.96 164.49 60.00 C 157.38 47.93 150.27 35.86 143.12 23.82 C 123.28 35.84 103.47 47.94 83.61 59.94 M 176.70 41.28 C 180.38 47.53 184.05 53.80 187.80 60.02 C 195.65 59.97 203.51 60.02 211.36 59.99 C 205.45 50.26 199.49 40.55 193.57 30.82 C 187.93 34.28 182.32 37.79 176.70 41.28 M 192.73 157.13 C 191.73 162.73 196.50 168.33 202.16 168.39 C 213.43 168.65 224.72 168.43 236.00 168.50 C 236.00 161.83 236.00 155.17 236.00 148.50 C 225.00 148.53 214.00 148.44 203.00 148.54 C 198.06 148.38 193.27 152.14 192.73 157.13 Z" />
</g>
</svg>
